<?xml version="1.0" standalone="no"?>
<!DOCTYPE svg PUBLIC "-//W3C//DTD SVG 20010904//EN"
 "http://www.w3.org/TR/2001/REC-SVG-20010904/DTD/svg10.dtd">
<svg version="1.0" xmlns="http://www.w3.org/2000/svg"
 width="225.000000pt" height="225.000000pt" viewBox="0 0 225.000000 225.000000"
 preserveAspectRatio="xMidYMid meet">

<g transform="translate(0.000000,225.000000) scale(0.100000,-0.100000)"
fill="#000000" stroke="none">
<path d="M1351 1494 c-56 -15 -110 -43 -131 -69 -18 -22 -6 -18 36 10 20 14
63 30 95 37 36 7 59 17 59 25 0 7 -1 13 -2 12 -2 0 -27 -7 -57 -15z"/>
<path d="M850 1491 c0 -5 18 -11 41 -15 47 -8 94 -29 127 -59 12 -11 22 -15
22 -9 0 15 -57 58 -103 77 -40 16 -87 20 -87 6z"/>
<path d="M787 1464 c-14 -14 6 -24 46 -24 24 0 67 -6 97 -14 30 -8 57 -13 58
-11 9 9 -62 35 -119 44 -76 13 -74 13 -82 5z"/>
<path d="M1378 1459 c-50 -7 -138 -42 -138 -54 0 -2 16 3 36 11 19 8 71 17
115 21 57 4 79 10 79 19 0 15 -8 16 -92 3z"/>
<path d="M710 1422 c0 -13 41 -318 46 -341 l5 -24 33 32 c25 24 35 28 44 19 9
-9 7 -17 -10 -35 -12 -13 -17 -23 -13 -23 5 0 38 28 72 62 52 51 63 59 69 44
5 -12 -4 -28 -27 -52 -18 -19 -28 -34 -23 -34 5 0 30 20 54 45 43 44 70 57 70
33 0 -7 -21 -35 -47 -63 l-48 -50 47 45 c38 34 51 41 60 32 9 -9 2 -22 -32
-57 -24 -24 -41 -47 -38 -50 2 -3 13 4 23 15 20 22 45 27 45 8 0 -7 -30 -42
-66 -79 l-66 -66 64 -13 c35 -6 83 -20 109 -29 43 -17 48 -17 98 0 29 10 79
24 113 30 l60 12 -66 66 c-63 64 -80 91 -54 91 6 0 23 -10 37 -22 14 -13 6 -2
-18 24 -31 33 -42 52 -37 64 6 15 14 10 56 -31 28 -27 50 -45 50 -40 0 5 -23
33 -52 62 -43 44 -49 53 -34 59 13 5 31 -6 65 -40 57 -56 81 -62 26 -6 -31 31
-36 43 -27 52 10 10 26 -2 77 -52 36 -35 65 -60 65 -55 0 4 -8 17 -17 27 -11
13 -13 22 -6 29 7 7 20 0 42 -22 18 -17 34 -30 36 -28 2 2 13 76 24 164 12 88
24 170 26 183 5 22 4 22 -67 16 -115 -10 -197 -32 -276 -74 l-73 -40 -72 40
c-40 21 -101 46 -137 54 -75 16 -210 28 -210 18z"/>
<path d="M536 737 c-27 -20 -16 -50 22 -61 17 -5 32 -15 32 -22 0 -20 -40 -17
-56 4 -12 16 -13 16 -14 -4 0 -16 7 -20 39 -22 32 -2 41 1 46 18 8 26 -7 46
-41 54 -14 4 -24 12 -22 18 7 19 25 20 42 3 14 -15 16 -15 16 -1 0 9 -4 16 -9
16 -5 0 -15 2 -23 5 -7 3 -22 -1 -32 -8z"/>
<path d="M1240 732 c14 -11 27 -16 29 -11 4 13 2 15 -29 24 l-25 8 25 -21z"/>
<path d="M642 723 c9 -10 21 -36 28 -57 13 -40 20 -37 34 14 5 17 4 21 -2 12
-7 -11 -12 -6 -20 17 -8 22 -17 31 -33 31 -20 0 -21 -2 -7 -17z"/>
<path d="M717 733 c-11 -10 -8 -25 3 -18 6 4 10 -10 10 -34 0 -22 -5 -42 -12
-44 -7 -3 10 -6 39 -6 43 -1 51 2 47 14 -4 10 0 15 12 15 15 0 16 2 5 9 -9 6
-11 16 -7 27 6 16 10 14 22 -15 8 -18 11 -37 8 -42 -3 -5 19 -9 48 -9 l53 0
-3 55 c-3 43 -7 55 -20 55 -14 0 -16 -9 -14 -50 5 -67 -17 -67 -48 0 -13 28
-27 50 -30 50 -4 0 -17 -22 -28 -50 -13 -31 -27 -50 -37 -50 -14 0 -16 9 -13
50 2 40 0 50 -13 50 -9 0 -19 -3 -22 -7z"/>
<path d="M968 733 c18 -7 15 -30 -5 -42 -10 -6 -12 -11 -5 -11 6 0 12 -11 12
-25 0 -18 5 -25 19 -25 11 0 23 5 27 12 4 6 3 8 -3 5 -15 -9 -34 38 -21 51 15
15 2 42 -19 41 -11 0 -13 -3 -5 -6z"/>
<path d="M1020 718 c0 -12 1 -19 3 -17 1 2 9 12 16 22 12 14 11 17 -3 17 -10
0 -16 -8 -16 -22z"/>
<path d="M1058 685 c-3 -50 -1 -55 17 -55 18 0 20 5 17 55 -3 37 -8 55 -17 55
-9 0 -14 -18 -17 -55z"/>
<path d="M1111 723 c7 -10 15 -20 16 -22 2 -2 3 5 3 17 0 14 -6 22 -16 22 -14
0 -15 -3 -3 -17z"/>
<path d="M1195 728 c-11 -28 1 -45 34 -53 17 -4 31 -13 31 -21 0 -20 -47 -18
-59 4 -9 15 -10 15 -11 -4 0 -18 6 -21 36 -20 44 1 65 25 45 50 -8 9 -22 16
-33 16 -10 0 -23 10 -27 23 -8 19 -10 20 -16 5z"/>
<path d="M1291 718 c0 -16 2 -18 6 -8 3 8 11 18 17 22 7 5 4 8 -6 8 -12 0 -18
-7 -17 -22z"/>
<path d="M1328 685 c-3 -50 -1 -55 17 -55 18 0 20 5 17 55 -5 76 -29 76 -34 0z"/>
<path d="M1382 720 c7 -10 14 -18 15 -16 6 6 -9 36 -18 36 -5 0 -4 -9 3 -20z"/>
<path d="M1428 685 c-26 -55 -26 -55 -4 -54 11 0 16 3 9 5 -15 7 -6 34 10 30
7 -1 9 -1 5 1 -11 6 -10 33 1 33 9 0 26 -48 23 -62 -1 -5 22 -8 51 -8 l52 0
-3 55 c-3 43 -7 55 -20 55 -14 0 -16 -9 -14 -50 3 -41 1 -50 -13 -50 -10 0
-24 19 -37 50 -11 28 -24 50 -27 50 -4 0 -19 -25 -33 -55z"/>
<path d="M1599 726 c9 -11 8 -17 -4 -29 -9 -10 -11 -18 -5 -22 5 -3 10 -15 10
-26 0 -21 34 -27 46 -7 4 7 3 8 -5 4 -15 -10 -32 35 -19 51 14 17 3 43 -18 43
-13 0 -14 -3 -5 -14z"/>
<path d="M1651 718 c0 -16 2 -18 6 -8 3 8 11 18 17 22 7 5 4 8 -6 8 -12 0 -18
-7 -17 -22z"/>
<path d="M1688 685 c-3 -50 -1 -55 17 -55 18 0 20 5 17 55 -5 76 -29 76 -34 0z"/>
<path d="M1742 720 c14 -22 24 -19 15 5 -4 8 -11 15 -17 15 -6 0 -6 -7 2 -20z"/>
<path d="M630 645 c-10 -13 -9 -15 8 -15 15 0 20 5 16 15 -4 8 -7 15 -9 15 -1
0 -8 -7 -15 -15z"/>
<path d="M552 563 c3 -5 10 -23 17 -40 7 -18 17 -33 21 -33 5 0 1 18 -8 40 -9
22 -21 40 -25 40 -5 0 -7 -3 -5 -7z"/>
<path d="M714 544 c-4 -16 -2 -31 7 -39 12 -12 14 -8 14 25 0 45 -11 53 -21
14z"/>
<path d="M925 561 c-3 -6 -2 -11 4 -11 5 0 12 -13 16 -30 4 -16 11 -30 15 -30
5 0 2 17 -7 38 -18 45 -19 46 -28 33z"/>
<path d="M1095 530 c0 -22 3 -40 8 -40 4 0 7 18 7 40 0 22 -3 40 -7 40 -5 0
-8 -18 -8 -40z"/>
<path d="M1146 546 c4 -16 1 -33 -7 -44 -13 -15 -12 -16 4 -3 19 15 23 56 7
66 -7 4 -9 -2 -4 -19z"/>
<path d="M1288 530 c-2 -22 0 -40 4 -40 5 0 8 18 8 40 0 22 -2 40 -4 40 -2 0
-6 -18 -8 -40z"/>
<path d="M1472 530 c-2 -22 1 -40 6 -40 5 0 7 15 6 33 l-3 32 11 -27 c7 -16
15 -28 20 -28 11 0 10 2 -8 38 -21 43 -30 40 -32 -8z"/>
<path d="M1535 530 c0 -22 5 -40 10 -40 6 0 9 17 7 40 -5 52 -18 52 -17 0z"/>
<path d="M1695 540 c9 -17 13 -35 10 -40 -3 -6 -2 -10 3 -10 5 0 12 13 14 29
2 17 1 28 -4 25 -4 -3 -11 2 -14 10 -3 9 -10 16 -15 16 -5 0 -2 -14 6 -30z"/>
<path d="M532 515 c-6 -14 -8 -25 -3 -25 8 0 23 41 17 47 -1 2 -8 -8 -14 -22z"/>
<path d="M1336 505 c-3 -8 -1 -15 4 -15 6 0 10 7 10 15 0 8 -2 15 -4 15 -2 0
-6 -7 -10 -15z"/>
<path d="M895 500 c-3 -5 -1 -10 4 -10 6 0 11 5 11 10 0 6 -2 10 -4 10 -3 0
-8 -4 -11 -10z"/>
</g>
</svg>
